Coordinates
version=1
nRows=21
nColumns=38
inDegrees=no

Units are S.I. units (second, meters, Newtons, ...)
If the header above contains a line with 'inDegrees', this indicates whether rotational values are in degrees (yes) or radians (no).

endheader
time	pelvis_tilt	pelvis_list	pelvis_rotation	pelvis_tx	pelvis_ty	pelvis_tz	hip_flexion_r	hip_adduction_r	hip_rotation_r	knee_angle_r	ankle_angle_r	subtalar_angle_r	mtp_angle_r	hip_flexion_l	hip_adduction_l	hip_rotation_l	knee_angle_l	ankle_angle_l	subtalar_angle_l	mtp_angle_l	lumbar_extension	lumbar_bending	lumbar_rotation	arm_flex_r	arm_add_r	arm_rot_r	elbow_flex_r	pro_sup_r	wrist_flex_r	wrist_dev_r	arm_flex_l	arm_add_l	arm_rot_l	elbow_flex_l	pro_sup_l	wrist_flex_l	wrist_dev_l
1.84	0.097887	-0.0679036	0.017394	1.03554	1.0194	-0.456457	0.078769	0.0576668	-0.171596	-0.664265	0.441842	0.0473849	-0.000373762	0.264031	-0.188985	-0.0818395	-1.23809	0.195362	0.0428336	-0.000193839	-0.295703	0.0489952	0.0612782	-0.104365	-0.19583	0.126557	1.67777	1.49693	-0.00221318	0.0181769	-0.342307	-0.309646	0.0637104	2.21143	1.67541	0.0209886	0.00443531
1.85	0.0858417	-0.057014	0.0169051	1.0359	1.02275	-0.455648	0.0531172	0.0481502	-0.169147	-0.631099	0.428752	0.0473849	-0.000373762	0.291204	-0.174007	-0.08283	-1.19722	0.20251	0.0428336	-0.000193839	-0.277723	0.0313007	0.0687402	-0.0875286	-0.196661	0.15412	1.7248	1.52387	-0.00221318	0.0181769	-0.376615	-0.302349	0.0440158	2.25896	1.62574	0.0209886	0.00443531
1.86	0.0728086	-0.046823	0.0163524	1.03643	1.02643	-0.455052	0.0277609	0.0387822	-0.167825	-0.595345	0.407909	0.0473849	-0.000373762	0.315701	-0.159607	-0.0848951	-1.14784	0.208054	0.0428336	-0.000193839	-0.258364	0.0146218	0.0768257	-0.0732808	-0.198946	0.18065	1.77461	1.55273	-0.00221318	0.0181769	-0.410143	-0.292804	0.0252638	2.30763	1.58239	0.0209886	0.00443531
1.87	0.0594982	-0.037474	0.0158261	1.03712	1.03039	-0.454676	0.0026122	0.0296692	-0.167863	-0.558102	0.379092	0.0473849	-0.000373762	0.336629	-0.146061	-0.0882289	-1.09009	0.211854	0.0428336	-0.000193839	-0.238575	-0.000798303	0.0856702	-0.0615022	-0.20259	0.20574	1.826	1.58184	-0.00221318	0.0181769	-0.442095	-0.281029	0.00734693	2.35539	1.54695	0.0209886	0.00443531
1.88	0.0465923	-0.0290085	0.0153739	1.03792	1.03458	-0.454507	-0.0224329	0.0208547	-0.169449	-0.520468	0.342458	0.0473849	-0.000373762	0.353158	-0.133441	-0.0929631	-1.0242	0.213781	0.0428336	-0.000193839	-0.219262	-0.0148862	0.0951925	-0.0519595	-0.207407	0.22922	1.8777	1.60943	-0.00221318	0.0181769	-0.471911	-0.267208	-0.0099264	2.40069	1.52014	0.0209886	0.00443531
1.89	0.0346968	-0.0214083	0.0150073	1.03883	1.03894	-0.454527	-0.0474225	0.0123544	-0.172697	-0.483555	0.298633	0.0473849	-0.000373762	0.364636	-0.121664	-0.0991173	-0.950664	0.2138	0.0428336	-0.000193839	-0.201211	-0.0276783	0.10515	-0.0443694	-0.213143	0.25109	1.92841	1.63397	-0.00221318	0.0181769	-0.499239	-0.25168	-0.0267282	2.44245	1.50189	0.0209886	0.00443531
1.9	0.0242843	-0.0146444	0.0147046	1.03981	1.04338	-0.454712	-0.0722705	0.00418904	-0.177601	-0.448532	0.248727	0.0473849	-0.000373762	0.370701	-0.110566	-0.106586	-0.870315	0.212041	0.0428336	-0.000193839	-0.18502	-0.0392473	0.115226	-0.038471	-0.219522	0.271442	1.97688	1.65427	-0.00221318	0.0181769	-0.523881	-0.234904	-0.0431297	2.47998	1.49151	0.0209886	0.00443531
1.91	0.0156443	-0.00871467	0.0144151	1.04086	1.04778	-0.455034	-0.0966811	-0.00359829	-0.184009	-0.416668	0.194281	0.0473849	-0.000373762	0.37137	-0.0999831	-0.115158	-0.784487	0.20886	0.0428336	-0.000193839	-0.171046	-0.0496416	0.125112	-0.0340872	-0.226295	0.290374	2.02196	1.6696	-0.00221318	0.0181769	-0.545742	-0.217412	-0.0590636	2.51294	1.48797	0.0209886	0.00443531
1.92	0.00886014	-0.00365293	0.0140713	1.04194	1.05203	-0.455471	-0.120113	-0.0109473	-0.191601	-0.38935	0.137134	0.0473849	-0.000373762	0.367087	-0.0898138	-0.12455	-0.695069	0.204844	0.0428336	-0.000193839	-0.159385	-0.0588549	0.134559	-0.0311544	-0.23328	0.307922	2.06268	1.67971	-0.00221318	0.0181769	-0.564799	-0.199744	-0.0743364	2.54119	1.49006	0.0209886	0.00443531
1.93	0.00381672	0.000486761	0.0136142	1.04304	1.05597	-0.456003	-0.141793	-0.0178095	-0.199904	-0.368041	0.0792262	0.0473849	-0.000373762	0.358704	-0.0800335	-0.134424	-0.604487	0.200743	0.0428336	-0.000193839	-0.149896	-0.0668386	0.143388	-0.0297157	-0.24038	0.324027	2.09827	1.68488	-0.00221318	0.0181769	-0.581065	-0.182407	-0.0886822	2.56475	1.49651	0.0209886	0.00443531
1.94	0.000253966	0.00366927	0.0130244	1.04412	1.05947	-0.456618	-0.1608	-0.0241898	-0.208344	-0.354186	0.0223869	0.0473849	-0.000373762	0.347399	-0.0706669	-0.144378	-0.515594	0.197324	0.0428336	-0.000193839	-0.14227	-0.073545	0.151465	-0.0298825	-0.247579	0.33853	2.12817	1.68582	-0.00221318	0.0181769	-0.594574	-0.165835	-0.101836	2.58379	1.50612	0.0209886	0.00443531
1.95	-0.0021566	0.0059297	0.0123462	1.04515	1.0624	-0.457312	-0.176194	-0.0301818	-0.216313	-0.349076	-0.0318536	0.0473849	-0.000373762	0.334523	-0.0617325	-0.153896	-0.431475	0.195186	0.0428336	-0.000193839	-0.136139	-0.0789809	0.158651	-0.0317805	-0.254923	0.351194	2.15207	1.68362	-0.00221318	0.0181769	-0.60537	-0.150382	-0.113605	2.59855	1.51782	0.0209886	0.00443531
1.96	-0.00372725	0.00740734	0.0116935	1.0461	1.06467	-0.458086	-0.18717	-0.0359823	-0.223238	-0.353706	-0.0823738	0.0473849	-0.000373762	0.321414	-0.0531873	-0.162313	-0.355188	0.194577	0.0428336	-0.000193839	-0.131179	-0.0832495	0.164771	-0.0355021	-0.262485	0.361728	2.16988	1.6796	-0.00221318	0.0181769	-0.613496	-0.136325	-0.123914	2.60941	1.5307	0.0209886	0.00443531
1.97	-0.00468662	0.00834872	0.0112355	1.04694	1.06621	-0.458956	-0.193193	-0.0418729	-0.228638	-0.368659	-0.12846	0.0473849	-0.000373762	0.309241	-0.0448997	-0.16882	-0.289519	0.195312	0.0428336	-0.000193839	-0.1272	-0.0865664	0.169599	-0.0410774	-0.27033	0.369823	2.18174	1.67512	-0.00221318	0.0181769	-0.618999	-0.123876	-0.132826	2.61687	1.54401	0.0209886	0.00443531
1.98	-0.00512956	0.009088	0.0111695	1.04763	1.06697	-0.459935	-0.194095	-0.048177	-0.232141	-0.394037	-0.169711	0.0473849	-0.000373762	0.298868	-0.0366521	-0.172558	-0.236768	0.196792	0.0428336	-0.000193839	-0.124196	-0.0892478	0.172878	-0.048462	-0.278482	0.375187	2.18796	1.67133	-0.00221318	0.0181769	-0.621933	-0.113197	-0.140526	2.62153	1.5572	0.0209886	0.00443531
1.99	-0.00500715	0.0100056	0.0116865	1.04813	1.06691	-0.46104	-0.190098	-0.0551964	-0.233493	-0.429447	-0.205876	0.0473849	-0.000373762	0.290814	-0.0281802	-0.172772	-0.198615	0.198149	0.0428336	-0.000193839	-0.122346	-0.0916685	0.174346	-0.0575435	-0.286913	0.377575	2.189	1.66891	-0.00221318	0.0181769	-0.62235	-0.104416	-0.147275	2.62399	1.56996	0.0209886	0.00443531
2	-0.00415855	0.0114673	0.012943	1.04842	1.06603	-0.462278	-0.181754	-0.063151	-0.23255	-0.47407	-0.236668	0.0473849	-0.000373762	0.285288	-0.0192313	-0.169008	-0.176065	0.198479	0.0428336	-0.000193839	-0.121967	-0.0942064	0.173786	-0.068159	-0.295528	0.376807	2.18538	1.66808	-0.00221318	0.0181769	-0.62029	-0.0976401	-0.153341	2.62473	1.58207	0.0209886	0.00443531
2.01	-0.00237421	0.0137621	0.0150403	1.04845	1.06433	-0.463644	-0.169807	-0.0721348	-0.22928	-0.526785	-0.261616	0.0473849	-0.000373762	0.282279	-0.00962539	-0.161264	-0.169463	0.197108	0.0428336	-0.000193839	-0.123432	-0.0971851	0.171058	-0.0801144	-0.304174	0.372772	2.17767	1.66856	-0.00221318	0.0181769	-0.615763	-0.0929681	-0.158913	2.62401	1.59332	0.0209886	0.00443531
2.02	0.000528277	0.0170578	0.0180125	1.04821	1.06179	-0.465117	-0.155037	-0.0820996	-0.223775	-0.586329	-0.280014	0.0473849	-0.000373762	0.281657	0.000695564	-0.150059	-0.178538	0.193865	0.0428336	-0.000193839	-0.127093	-0.100825	0.166139	-0.0931969	-0.312649	0.365421	2.16636	1.66988	-0.00221318	0.0181769	-0.608726	-0.0904911	-0.16404	2.6218	1.60343	0.0209886	0.00443531
2.03	0.0046615	0.0213946	0.0218224	1.04767	1.0584	-0.466658	-0.13809	-0.0928723	-0.216251	-0.651424	-0.290997	0.0473849	-0.000373762	0.283254	0.011646	-0.136371	-0.202448	0.189299	0.0428336	-0.000193839	-0.13319	-0.105214	0.159135	-0.107181	-0.320704	0.354741	2.15177	1.67153	-0.00221318	0.0181769	-0.599069	-0.0902876	-0.168591	2.6178	1.61195	0.0209886	0.00443531
2.04	0.0100124	0.0266811	0.0263571	1.04678	1.05418	-0.468222	-0.119384	-0.104201	-0.207061	-0.720845	-0.293764	0.0473849	-0.000373762	0.286887	0.0230116	-0.121452	-0.239823	0.18476	0.0428336	-0.000193839	-0.141807	-0.11031	0.150292	-0.121824	-0.328042	0.340734	2.13402	1.67333	-0.00221318	0.0181769	-0.586607	-0.0924117	-0.172255	2.61142	1.61831	0.0209886	0.00443531
